<?xml version="1.0" encoding="UTF-8"?>
<svg id="Layer_2" data-name="Layer 2" xmlns="http://www.w3.org/2000/svg" xmlns:xlink="http://www.w3.org/1999/xlink" viewBox="0 0 141.69 55.38">
  <defs>
    <style>
      .cls-1 {
        fill: #e00a7d;
      }

      .cls-1, .cls-2, .cls-3, .cls-4, .cls-5, .cls-6 {
        stroke-width: 0px;
      }

      .cls-2 {
        fill: #282462;
      }

      .cls-3 {
        fill: none;
      }

      .cls-4 {
        fill: #1db0e5;
      }

      .cls-7 {
        clip-path: url(#clippath);
      }

      .cls-5 {
        fill: #c0c731;
      }

      .cls-6 {
        fill: #f4b617;
      }
    </style>
    <clipPath id="clippath">
      <rect class="cls-3" y=".89" width="35.88" height="35.88" rx="4.18" ry="4.18"/>
    </clipPath>
  </defs>
  <g id="OBJECTS">
    <g>
      <g>
        <polygon class="cls-2" points="1.98 41.64 4.56 41.64 10.36 50.02 10.36 41.64 12.91 41.64 12.91 54.38 10.32 54.38 4.53 46 4.53 54.38 1.98 54.38 1.98 41.64"/>
        <polygon class="cls-2" points="37.6 41.54 40.51 41.54 44.13 51.1 47.77 41.54 50.62 41.54 45.45 54.56 42.77 54.56 37.6 41.54"/>
        <path class="cls-2" d="m18.5,47.86c0-3.78,2.91-6.65,6.78-6.65s6.78,2.87,6.78,6.65-2.92,6.65-6.78,6.65-6.78-2.87-6.78-6.65m10.92,0c0-2.38-1.79-4.17-4.14-4.17s-4.15,1.79-4.15,4.17,1.79,4.17,4.15,4.17,4.14-1.79,4.14-4.17"/>
        <path class="cls-2" d="m61,41.36h3.08l5.02,13.06h-2.86l-.93-2.54h-5.62l-.91,2.54h-2.82l5.03-13.06Zm3.43,8.12l-1.91-5.24-1.93,5.24h3.84Z"/>
        <path class="cls-2" d="m79.81,41.8h5.7c2.47,0,4.34,1.8,4.34,4.2,0,1.84-1.15,3.3-2.84,3.82l3.21,4.79h-3.17l-2.93-4.57h-1.75v4.57h-2.56v-12.81Zm2.56,2.41v3.6h3.08c1,0,1.76-.78,1.76-1.8s-.76-1.8-1.76-1.8h-3.08Z"/>
        <path class="cls-2" d="m100.58,41.54h3.18l5.17,13.47h-2.95l-.96-2.62h-5.8l-.94,2.62h-2.91l5.19-13.47Zm3.53,8.37l-1.97-5.41-1.99,5.41h3.96Z"/>
        <path class="cls-2" d="m113.61,48.31c0-4.02,3.09-7.07,7.21-7.07,3.46,0,6.24,2.22,6.87,5.32h-2.89c-.55-1.6-2.12-2.69-3.98-2.69-2.51,0-4.41,1.9-4.41,4.43s1.9,4.43,4.41,4.43c1.86,0,3.42-1.09,3.98-2.69h2.89c-.63,3.11-3.4,5.32-6.87,5.32-4.12,0-7.21-3.05-7.21-7.07"/>
        <polygon class="cls-2" points="133.09 41.81 141.6 41.81 141.6 44.24 135.68 44.24 135.68 47.02 140.98 47.02 140.98 49.45 135.68 49.45 135.68 52.3 141.69 52.3 141.69 54.74 133.09 54.74 133.09 41.81"/>
      </g>
      <g class="cls-7">
        <rect class="cls-5" x="17.94" y="-17.05" width="35.88" height="35.88" transform="translate(9.88 25.63) rotate(-45)"/>
        <rect class="cls-5" x="-17.94" y="18.83" width="35.88" height="35.88" transform="translate(-26 10.77) rotate(-45)"/>
      </g>
      <path class="cls-1" d="m59.47,37.46h0c-10.34,0-18.73-8.39-18.73-18.73S49.13,0,59.47,0s18.73,8.39,18.73,18.73-8.39,18.73-18.73,18.73"/>
      <path class="cls-4" d="m138.36,36.88h-26.52c-2.39,0-3.99-2.46-3.01-4.64l13.26-29.79c1.16-2.61,4.87-2.61,6.03,0l13.26,29.79c.97,2.18-.63,4.64-3.01,4.64"/>
      <path class="cls-6" d="m84.05.52c-2.39,0-3.99,2.46-3.01,4.64l8.38,18.83,4.88,10.96c1.16,2.61,4.87,2.61,6.03,0l13.26-29.79c.97-2.18-.63-4.64-3.01-4.64h-26.52Z"/>
    </g>
  </g>
</svg>